<?xml version="1.0" encoding="UTF-8"?>
<svg width="16px" height="16px" viewBox="0 0 16 16" version="1.1" xmlns="http://www.w3.org/2000/svg" xmlns:xlink="http://www.w3.org/1999/xlink">
    <title>favicon</title>
    <g id="favicon" stroke="none" stroke-width="1" fill="none" fill-rule="evenodd">
        <path d="M15.7391794,0.97308553 C15.8294634,0.882799244 16,0.942990101 16,1.08343544 L16,1.08343544 L16,11.7071218 C16,11.7773445 15.9699053,11.8475671 15.9197475,11.907758 L15.9197475,11.907758 L12.3585425,15.9505772 C12.2582269,16.0508953 12.0876903,15.9907045 12.0977218,15.8402273 L12.0977218,15.8402273 L12.0977218,4.71495051 C12.0977218,4.67482327 12.1077534,4.63469603 12.1378481,4.6046006 L12.1378481,4.6046006 Z M14.9165912,-6.66133815e-16 C15.057033,-6.66133815e-16 15.1172224,0.170540763 15.0269383,0.260827049 L11.3955124,3.86224669 C11.3654177,3.89234212 11.3252915,3.90237393 11.2851652,3.90237393 L0.150129824,3.90237393 C0.00968793609,3.91240574 -0.0505014443,3.73183317 0.0498141897,3.64154688 L4.09253424,0.0802544767 C4.15272362,0.0300954288 4.22294457,-6.66133815e-16 4.29316551,-6.66133815e-16 L14.9165912,-6.66133815e-16 Z" id="Combined-Shape" fill="#0099FF" fill-rule="nonzero"></path>
    </g>
</svg>